# xmcd
#
# Track frame offsets:
# 150
# 3154
# 27347
# 45057
# 68860
# 93037
# 97585
# 117849
# 142075
# 155322
# 178817
# 211246
# 233528
# 247519
# 252198
#
# Disc length: 3628 seconds
#
#
# Revision: 0
# Processed by: cddbd v1.5.2PL0 Copyright (c) Steve Scherf et al.
# Submitted via: FreeRIP 2.951 
#
DISCID=a40e2a0f
DTITLE=Raiz Coral - Pra Louvar
DYEAR=2004
DGENRE=Gospel and Religious
TTITLE0=Raiz Coral - Abertura (Singabahamba)
TTITLE1=Raiz Coral - Pra Louvar
TTITLE2=Raiz Coral - Caridade
TTITLE3=Raiz Coral - Dê o seu Melhor
TTITLE4=Raiz Coral - A Coroa
TTITLE5=Raiz Coral - Intro Pequena Luz - part. Grupo Puro Louvor
TTITLE6=Raiz Coral - Pequena Luz - part.  Isabêh - Junior - Jezrrel
TTITLE7=Raiz Coral - Te Louvo
TTITLE8=Raiz Coral - Jesus, Breve Vai Voltar
TTITLE9=Raiz Coral - Bendito - part. Carine Luup
TTITLE10=Raiz Coral - Jesus Meu Guia É - part. Leonardo Gonçalves
TTITLE11=Raiz Coral - Tocou-me
TTITLE12=Raiz Coral - Vem Louvar
TTITLE13=Raiz Coral - Singabahamba (Reprise)
TTITLE14=Raiz Coral - Bônus Track (Pequena Luz - Instrumental)
EXTD=Brazilian Gospel Group
EXTT0=
EXTT1=
EXTT2=
EXTT3=
EXTT4=
EXTT5=Participação Especial - Grupo Puro Louvor
EXTT6=Participação Especial -  Isabêh, Junior, Jezrrel
EXTT7=
EXTT8=
EXTT9=Participação Especial - Carine Luup
EXTT10=Participação Especial - Leonardo Gonçalves
EXTT11=
EXTT12=
EXTT13=
EXTT14=Instrumental
PLAYORDER=
